<svg width="285" height="41" viewBox="0 0 285 41" fill="none" xmlns="http://www.w3.org/2000/svg">
<g filter="url(#filter0_d_221_4)">
<rect width="279" height="37" rx="12" fill="#8AD974"/>
<rect x="1.5" y="1.5" width="276" height="34" rx="10.5" stroke="black" stroke-width="3"/>
</g>
<path d="M85.72 19.8C85.38 19.8 85.04 19.75 84.7 19.65C84.36 19.54 84.02 19.42 83.68 19.29C83.36 19.18 83.05 19.08 82.75 18.99C82.46 18.9 82.18 18.855 81.91 18.855C81.69 18.855 81.47 18.905 81.25 19.005C81.04 19.095 80.83 19.27 80.62 19.53V18.24C80.82 18.04 81.025 17.9 81.235 17.82C81.455 17.74 81.68 17.7 81.91 17.7C82.23 17.7 82.56 17.75 82.9 17.85C83.25 17.95 83.595 18.06 83.935 18.18C84.255 18.3 84.56 18.41 84.85 18.51C85.15 18.6 85.44 18.645 85.72 18.645C85.96 18.645 86.195 18.585 86.425 18.465C86.655 18.345 86.89 18.12 87.13 17.79V19.14C86.94 19.37 86.72 19.54 86.47 19.65C86.23 19.75 85.98 19.8 85.72 19.8ZM94.1778 24V13.5H98.6928C99.4628 13.5 100.123 13.635 100.673 13.905C101.223 14.175 101.643 14.565 101.933 15.075C102.223 15.585 102.368 16.205 102.368 16.935C102.368 17.665 102.218 18.3 101.918 18.84C101.618 19.37 101.193 19.78 100.643 20.07C100.093 20.36 99.4428 20.505 98.6928 20.505H95.7528L95.7678 24H94.1778ZM95.7678 19.095H98.4978C99.2078 19.095 99.7578 18.92 100.148 18.57C100.538 18.21 100.733 17.675 100.733 16.965C100.733 16.235 100.538 15.71 100.148 15.39C99.7578 15.07 99.2078 14.91 98.4978 14.91H95.7678V19.095ZM106.371 24.105C105.531 24.105 104.911 23.875 104.511 23.415C104.121 22.955 103.926 22.34 103.926 21.57V16.455H105.441V21.21C105.441 21.73 105.566 22.115 105.816 22.365C106.076 22.605 106.451 22.725 106.941 22.725C107.161 22.725 107.376 22.695 107.586 22.635C107.796 22.575 108.016 22.49 108.246 22.38L108.846 22.11V16.455H110.376V24H109.206L109.026 22.83L109.341 23.07L108.546 23.49C108.166 23.7 107.791 23.855 107.421 23.955C107.061 24.055 106.711 24.105 106.371 24.105ZM115.495 24.105C114.765 24.105 114.215 23.95 113.845 23.64C113.485 23.33 113.305 22.83 113.305 22.14V17.79H111.655V16.74L113.305 16.455V14.655L114.835 14.115V16.455H117.385V17.79H114.835V21.66C114.835 22.05 114.905 22.34 115.045 22.53C115.195 22.71 115.51 22.8 115.99 22.8C116.13 22.8 116.28 22.795 116.44 22.785C116.6 22.765 116.765 22.745 116.935 22.725L117.34 22.665L117.52 23.76L117.16 23.865C116.9 23.935 116.62 23.99 116.32 24.03C116.02 24.08 115.745 24.105 115.495 24.105ZM119.017 24V16.455H120.142L120.322 17.415L120.907 17.01C121.207 16.81 121.532 16.65 121.882 16.53C122.232 16.4 122.567 16.335 122.887 16.335C122.997 16.335 123.107 16.35 123.217 16.38C123.327 16.41 123.432 16.46 123.532 16.53V17.73C123.202 17.74 122.877 17.775 122.557 17.835C122.247 17.885 121.887 18 121.477 18.18L120.547 18.54V24H119.017ZM124.964 24V16.455H126.494V24H124.964ZM125.729 14.745C125.539 14.745 125.364 14.7 125.204 14.61C125.044 14.51 124.919 14.385 124.829 14.235C124.739 14.075 124.694 13.9 124.694 13.71C124.694 13.54 124.739 13.38 124.829 13.23C124.919 13.07 125.044 12.945 125.204 12.855C125.364 12.765 125.539 12.72 125.729 12.72C125.919 12.72 126.089 12.765 126.239 12.855C126.399 12.945 126.524 13.07 126.614 13.23C126.714 13.38 126.764 13.545 126.764 13.725C126.764 13.905 126.714 14.075 126.614 14.235C126.524 14.385 126.399 14.51 126.239 14.61C126.089 14.7 125.919 14.745 125.729 14.745ZM136.28 24.15C135.7 24.15 135.155 24.11 134.645 24.03C134.145 23.95 133.695 23.855 133.295 23.745L132.41 23.49L132.68 22.275L133.7 22.455C134.08 22.535 134.505 22.6 134.975 22.65C135.455 22.7 135.885 22.725 136.265 22.725C137.055 22.725 137.65 22.59 138.05 22.32C138.46 22.04 138.665 21.64 138.665 21.12C138.665 20.85 138.6 20.62 138.47 20.43C138.34 20.24 138.09 20.055 137.72 19.875C137.35 19.695 136.805 19.5 136.085 19.29C135.235 19.04 134.56 18.795 134.06 18.555C133.56 18.305 133.2 18.01 132.98 17.67C132.77 17.32 132.665 16.87 132.665 16.32C132.665 15.62 132.84 15.055 133.19 14.625C133.55 14.185 134.035 13.865 134.645 13.665C135.255 13.455 135.93 13.35 136.67 13.35C137.12 13.35 137.585 13.385 138.065 13.455C138.545 13.525 139.02 13.63 139.49 13.77L140.075 13.92L139.835 15.12L139.055 15C138.685 14.94 138.3 14.885 137.9 14.835C137.5 14.785 137.11 14.76 136.73 14.76C135.94 14.76 135.335 14.89 134.915 15.15C134.495 15.41 134.285 15.795 134.285 16.305C134.285 16.565 134.35 16.78 134.48 16.95C134.62 17.12 134.88 17.275 135.26 17.415C135.65 17.555 136.215 17.735 136.955 17.955C137.785 18.175 138.445 18.42 138.935 18.69C139.435 18.96 139.79 19.275 140 19.635C140.22 19.995 140.33 20.44 140.33 20.97C140.33 21.7 140.15 22.3 139.79 22.77C139.43 23.24 138.945 23.59 138.335 23.82C137.725 24.04 137.04 24.15 136.28 24.15ZM144.007 24.105C143.607 24.105 143.222 24.03 142.852 23.88C142.482 23.73 142.177 23.5 141.937 23.19C141.707 22.88 141.592 22.485 141.592 22.005C141.592 21.385 141.787 20.9 142.177 20.55C142.567 20.19 143.117 19.935 143.827 19.785L146.362 19.215V19.17C146.362 18.64 146.207 18.26 145.897 18.03C145.587 17.79 145.137 17.67 144.547 17.67C144.217 17.67 143.882 17.695 143.542 17.745C143.202 17.795 142.892 17.855 142.612 17.925L142.252 18.015L141.982 17.01L142.357 16.875C142.817 16.695 143.257 16.56 143.677 16.47C144.107 16.38 144.532 16.335 144.952 16.335C145.822 16.335 146.527 16.565 147.067 17.025C147.607 17.485 147.877 18.19 147.877 19.14V22.155C147.877 22.475 147.952 22.695 148.102 22.815C148.252 22.925 148.572 22.995 149.062 23.025L148.987 24.03C148.887 24.06 148.777 24.08 148.657 24.09C148.547 24.1 148.447 24.105 148.357 24.105C147.847 24.105 147.447 23.995 147.157 23.775C146.877 23.545 146.682 23.26 146.572 22.92L146.227 23.22C145.887 23.52 145.522 23.745 145.132 23.895C144.742 24.035 144.367 24.105 144.007 24.105ZM144.487 22.83C144.717 22.83 144.957 22.785 145.207 22.695C145.457 22.595 145.712 22.455 145.972 22.275L146.362 22.005V20.145L144.067 20.775C143.697 20.885 143.437 21.025 143.287 21.195C143.147 21.365 143.077 21.575 143.077 21.825C143.077 22.145 143.202 22.395 143.452 22.575C143.702 22.745 144.047 22.83 144.487 22.83ZM152.255 24.105C151.545 24.105 151.03 23.95 150.71 23.64C150.4 23.32 150.245 22.885 150.245 22.335V12.93L151.775 12.45V21.99C151.775 22.25 151.845 22.445 151.985 22.575C152.125 22.705 152.365 22.77 152.705 22.77C152.795 22.77 152.89 22.77 152.99 22.77C153.1 22.76 153.215 22.75 153.335 22.74L153.305 23.91C153.135 23.98 152.955 24.03 152.765 24.06C152.585 24.09 152.415 24.105 152.255 24.105ZM157.009 24.105C156.639 24.105 156.264 24.07 155.884 24C155.504 23.93 155.114 23.83 154.714 23.7L154.204 23.52L154.459 22.44L154.939 22.53C155.269 22.59 155.599 22.64 155.929 22.68C156.269 22.71 156.594 22.725 156.904 22.725C157.384 22.725 157.749 22.655 157.999 22.515C158.249 22.375 158.374 22.16 158.374 21.87C158.374 21.71 158.339 21.575 158.269 21.465C158.209 21.345 158.069 21.235 157.849 21.135C157.639 21.025 157.309 20.91 156.859 20.79C156.199 20.61 155.679 20.425 155.299 20.235C154.929 20.035 154.664 19.8 154.504 19.53C154.354 19.25 154.279 18.905 154.279 18.495C154.289 18.005 154.419 17.605 154.669 17.295C154.919 16.975 155.259 16.735 155.689 16.575C156.129 16.415 156.629 16.335 157.189 16.335C157.549 16.335 157.914 16.365 158.284 16.425C158.664 16.485 159.024 16.565 159.364 16.665L159.709 16.785L159.484 17.865L159.184 17.82C158.854 17.76 158.549 17.725 158.269 17.715C157.999 17.695 157.744 17.685 157.504 17.685C156.954 17.685 156.524 17.75 156.214 17.88C155.914 18 155.764 18.185 155.764 18.435C155.764 18.605 155.804 18.74 155.884 18.84C155.974 18.94 156.149 19.04 156.409 19.14C156.669 19.23 157.059 19.34 157.579 19.47C158.199 19.63 158.674 19.81 159.004 20.01C159.344 20.2 159.579 20.43 159.709 20.7C159.849 20.96 159.919 21.285 159.919 21.675C159.919 22.235 159.789 22.695 159.529 23.055C159.269 23.415 158.919 23.68 158.479 23.85C158.049 24.02 157.559 24.105 157.009 24.105ZM163.357 24.105C162.957 24.105 162.572 24.03 162.202 23.88C161.832 23.73 161.527 23.5 161.287 23.19C161.057 22.88 160.942 22.485 160.942 22.005C160.942 21.385 161.137 20.9 161.527 20.55C161.917 20.19 162.467 19.935 163.177 19.785L165.712 19.215V19.17C165.712 18.64 165.557 18.26 165.247 18.03C164.937 17.79 164.487 17.67 163.897 17.67C163.567 17.67 163.232 17.695 162.892 17.745C162.552 17.795 162.242 17.855 161.962 17.925L161.602 18.015L161.332 17.01L161.707 16.875C162.167 16.695 162.607 16.56 163.027 16.47C163.457 16.38 163.882 16.335 164.302 16.335C165.172 16.335 165.877 16.565 166.417 17.025C166.957 17.485 167.227 18.19 167.227 19.14V22.155C167.227 22.475 167.302 22.695 167.452 22.815C167.602 22.925 167.922 22.995 168.412 23.025L168.337 24.03C168.237 24.06 168.127 24.08 168.007 24.09C167.897 24.1 167.797 24.105 167.707 24.105C167.197 24.105 166.797 23.995 166.507 23.775C166.227 23.545 166.032 23.26 165.922 22.92L165.577 23.22C165.237 23.52 164.872 23.745 164.482 23.895C164.092 24.035 163.717 24.105 163.357 24.105ZM163.837 22.83C164.067 22.83 164.307 22.785 164.557 22.695C164.807 22.595 165.062 22.455 165.322 22.275L165.712 22.005V20.145L163.417 20.775C163.047 20.885 162.787 21.025 162.637 21.195C162.497 21.365 162.427 21.575 162.427 21.825C162.427 22.145 162.552 22.395 162.802 22.575C163.052 22.745 163.397 22.83 163.837 22.83ZM173.541 24.105C173.211 24.105 172.866 24.045 172.506 23.925C172.156 23.805 171.806 23.63 171.456 23.4L170.826 22.995L171.141 21.945L171.831 22.335C172.081 22.475 172.316 22.575 172.536 22.635C172.756 22.695 172.976 22.725 173.196 22.725C173.646 22.725 174.031 22.625 174.351 22.425C174.681 22.225 174.936 21.94 175.116 21.57C175.296 21.2 175.386 20.75 175.386 20.22C175.386 19.71 175.296 19.27 175.116 18.9C174.936 18.52 174.676 18.23 174.336 18.03C174.006 17.83 173.601 17.73 173.121 17.73C172.921 17.73 172.711 17.755 172.491 17.805C172.281 17.845 172.041 17.92 171.771 18.03L171.201 18.255V22.425L171.036 22.68L170.826 24H169.671V12.93L171.201 12.45V17.61L170.766 17.22L171.666 16.8C171.956 16.66 172.261 16.55 172.581 16.47C172.911 16.38 173.231 16.335 173.541 16.335C174.201 16.335 174.786 16.505 175.296 16.845C175.816 17.175 176.216 17.635 176.496 18.225C176.786 18.805 176.931 19.47 176.931 20.22C176.931 20.97 176.786 21.64 176.496 22.23C176.216 22.82 175.821 23.28 175.311 23.61C174.801 23.94 174.211 24.105 173.541 24.105ZM178.782 24V16.455H180.312V24H178.782ZM179.547 14.745C179.357 14.745 179.182 14.7 179.022 14.61C178.862 14.51 178.737 14.385 178.647 14.235C178.557 14.075 178.512 13.9 178.512 13.71C178.512 13.54 178.557 13.38 178.647 13.23C178.737 13.07 178.862 12.945 179.022 12.855C179.182 12.765 179.357 12.72 179.547 12.72C179.737 12.72 179.907 12.765 180.057 12.855C180.217 12.945 180.342 13.07 180.432 13.23C180.532 13.38 180.582 13.545 180.582 13.725C180.582 13.905 180.532 14.075 180.432 14.235C180.342 14.385 180.217 14.51 180.057 14.61C179.907 14.7 179.737 14.745 179.547 14.745ZM184.497 24.105C183.787 24.105 183.272 23.95 182.952 23.64C182.642 23.32 182.487 22.885 182.487 22.335V12.93L184.017 12.45V21.99C184.017 22.25 184.087 22.445 184.227 22.575C184.367 22.705 184.607 22.77 184.947 22.77C185.037 22.77 185.132 22.77 185.232 22.77C185.342 22.76 185.457 22.75 185.577 22.74L185.547 23.91C185.377 23.98 185.197 24.03 185.007 24.06C184.827 24.09 184.657 24.105 184.497 24.105ZM188.787 24.105C188.387 24.105 188.002 24.03 187.632 23.88C187.262 23.73 186.957 23.5 186.717 23.19C186.487 22.88 186.372 22.485 186.372 22.005C186.372 21.385 186.567 20.9 186.957 20.55C187.347 20.19 187.897 19.935 188.607 19.785L191.142 19.215V19.17C191.142 18.64 190.987 18.26 190.677 18.03C190.367 17.79 189.917 17.67 189.327 17.67C188.997 17.67 188.662 17.695 188.322 17.745C187.982 17.795 187.672 17.855 187.392 17.925L187.032 18.015L186.762 17.01L187.137 16.875C187.597 16.695 188.037 16.56 188.457 16.47C188.887 16.38 189.312 16.335 189.732 16.335C190.602 16.335 191.307 16.565 191.847 17.025C192.387 17.485 192.657 18.19 192.657 19.14V22.155C192.657 22.475 192.732 22.695 192.882 22.815C193.032 22.925 193.352 22.995 193.842 23.025L193.767 24.03C193.667 24.06 193.557 24.08 193.437 24.09C193.327 24.1 193.227 24.105 193.137 24.105C192.627 24.105 192.227 23.995 191.937 23.775C191.657 23.545 191.462 23.26 191.352 22.92L191.007 23.22C190.667 23.52 190.302 23.745 189.912 23.895C189.522 24.035 189.147 24.105 188.787 24.105ZM189.267 22.83C189.497 22.83 189.737 22.785 189.987 22.695C190.237 22.595 190.492 22.455 190.752 22.275L191.142 22.005V20.145L188.847 20.775C188.477 20.885 188.217 21.025 188.067 21.195C187.927 21.365 187.857 21.575 187.857 21.825C187.857 22.145 187.982 22.395 188.232 22.575C188.482 22.745 188.827 22.83 189.267 22.83Z" fill="black"/>
<defs>
<filter id="filter0_d_221_4" x="0" y="0" width="284" height="41" filterUnits="userSpaceOnUse" color-interpolation-filters="sRGB">
<feFlood flood-opacity="0" result="BackgroundImageFix"/>
<feColorMatrix in="SourceAlpha" type="matrix" values="0 0 0 0 0 0 0 0 0 0 0 0 0 0 0 0 0 0 127 0" result="hardAlpha"/>
<feOffset dx="5" dy="4"/>
<feComposite in2="hardAlpha" operator="out"/>
<feColorMatrix type="matrix" values="0 0 0 0 0 0 0 0 0 0 0 0 0 0 0 0 0 0 0.83 0"/>
<feBlend mode="normal" in2="BackgroundImageFix" result="effect1_dropShadow_221_4"/>
<feBlend mode="normal" in="SourceGraphic" in2="effect1_dropShadow_221_4" result="shape"/>
</filter>
</defs>
</svg>
