<svg width="149" height="56" viewBox="0 0 149 56" fill="none" xmlns="http://www.w3.org/2000/svg">
<path d="M10.8323 40.5L25.5 4.02084L40.1677 40.5H10.8323Z" fill="#91A7EB" stroke="black" stroke-width="3"/>
<path d="M20.4956 38.25L25.5 27.5426L30.5044 38.25H20.4956Z" fill="#FD90E7" stroke="black" stroke-width="3"/>
<path d="M51.7555 35.85H60.0655C60.2855 35.85 60.4755 35.93 60.6355 36.09C60.7955 36.25 60.8755 36.44 60.8755 36.66V41.19C60.8755 41.41 60.7955 41.6 60.6355 41.76C60.4755 41.92 60.2855 42 60.0655 42H44.9455C44.7255 42 44.5355 41.92 44.3755 41.76C44.2155 41.6 44.1355 41.41 44.1355 41.19V21.81C44.1355 21.59 44.2155 21.4 44.3755 21.24C44.5355 21.08 44.7255 21 44.9455 21H50.9455C51.1655 21 51.3555 21.08 51.5155 21.24C51.6755 21.4 51.7555 21.59 51.7555 21.81V35.85ZM63.0487 27.6C63.0487 25.56 63.8887 23.9 65.5687 22.62C67.2687 21.34 69.4887 20.7 72.2287 20.7C74.9887 20.7 77.2387 21.37 78.9787 22.71C80.7387 24.05 81.6187 25.45 81.6187 26.91C81.6187 27.09 81.5487 27.25 81.4087 27.39C81.2887 27.51 81.1487 27.57 80.9887 27.57H74.9887C74.5287 27.57 74.1087 27.4 73.7287 27.06C73.3487 26.72 72.8387 26.55 72.1987 26.55C71.2387 26.55 70.7587 26.83 70.7587 27.39C70.7587 27.69 70.9887 27.94 71.4487 28.14C71.9287 28.34 72.8087 28.52 74.0887 28.68C77.0687 29.06 79.1887 29.76 80.4487 30.78C81.7287 31.78 82.3687 33.31 82.3687 35.37C82.3687 37.41 81.4287 39.08 79.5487 40.38C77.6887 41.66 75.2487 42.3 72.2287 42.3C69.2087 42.3 66.8387 41.68 65.1187 40.44C63.3987 39.2 62.5387 37.69 62.5387 35.91C62.5387 35.73 62.5987 35.58 62.7187 35.46C62.8587 35.32 63.0187 35.25 63.1987 35.25H68.8987C69.3187 35.25 69.7787 35.45 70.2787 35.85C70.7987 36.25 71.5087 36.45 72.4087 36.45C73.9087 36.45 74.6587 36.17 74.6587 35.61C74.6587 35.25 74.3887 34.98 73.8487 34.8C73.3087 34.6 72.2887 34.4 70.7887 34.2C65.6287 33.52 63.0487 31.32 63.0487 27.6ZM91.7798 21H98.2898C99.0098 21 99.4598 21.33 99.6398 21.99L106.33 41.13C106.35 41.19 106.36 41.29 106.36 41.43C106.36 41.55 106.29 41.68 106.15 41.82C106.03 41.94 105.88 42 105.7 42H100.15C99.5498 42 99.1598 41.75 98.9798 41.25L98.2598 39.27H91.8098L91.0898 41.25C90.9098 41.75 90.5198 42 89.9198 42H84.3698C84.1898 42 84.0298 41.94 83.8898 41.82C83.7698 41.68 83.7098 41.55 83.7098 41.43C83.7098 41.29 83.7198 41.19 83.7398 41.13L90.4298 21.99C90.6098 21.33 91.0598 21 91.7798 21ZM93.3398 33.42H96.7298L95.0198 27.84L93.3398 33.42Z" fill="black"/>
</svg>
